# Blender v2.79 (sub 0) OBJ File: ''
# www.blender.org
mtllib House_1_Door_R.mtl
o Cube.003
v 0.009269 0.002619 -0.097823
v 0.009269 2.975787 -0.097823
v 0.009269 0.002619 0.097823
v 0.009269 2.975787 0.097823
v -1.051583 0.002619 0.097823
v -1.051583 3.181747 0.097823
v -1.051583 0.002619 -0.097822
v -1.051583 3.181747 -0.097822
vn 1.0000 0.0000 -0.0000
vn -0.0000 0.0000 -1.0000
vn 0.1906 0.9817 0.0000
vn -1.0000 0.0000 0.0000
vn 0.0000 -1.0000 -0.0000
vn 0.0000 0.0000 1.0000
usemtl None
s off
f 1//1 2//1 4//1 3//1
f 7//2 8//2 2//2 1//2
f 6//3 4//3 2//3 8//3
f 8//4 7//4 5//4 6//4
f 3//5 5//5 7//5 1//5
f 3//6 4//6 6//6 5//6
