# Blender v2.79 (sub 0) OBJ File: 'House_5.blend'
# www.blender.org
mtllib House_5_window_3rd_flr.mtl
o Cube.004_Cube.018
v -0.014577 -0.020615 0.066458
v -0.014577 4.405316 0.066458
v -0.014577 -0.020615 -0.044342
v -0.014577 4.405316 -0.044342
v 1.362994 -0.020615 0.066458
v 1.362994 4.405316 0.066458
v 1.362994 -0.020615 -0.044342
v 1.362994 4.405316 -0.044342
vn -1.0000 0.0000 0.0000
vn 0.0000 0.0000 -1.0000
vn 1.0000 0.0000 0.0000
vn 0.0000 0.0000 1.0000
vn 0.0000 -1.0000 0.0000
vn 0.0000 1.0000 0.0000
usemtl None
s off
f 1//1 2//1 4//1 3//1
f 3//2 4//2 8//2 7//2
f 7//3 8//3 6//3 5//3
f 5//4 6//4 2//4 1//4
f 3//5 7//5 5//5 1//5
f 8//6 4//6 2//6 6//6
