# Blender v2.79 (sub 0) OBJ File: 'House_4.blend'
# www.blender.org
mtllib House_4_Door.mtl
o Cube.002_Cube.008
v -0.497027 -1.844138 0.055400
v -0.497027 1.844138 0.055400
v -0.497027 -1.844138 -0.055400
v -0.497027 1.844138 -0.055400
v 0.497027 -1.844138 0.055400
v 0.497027 1.844138 0.055400
v 0.497027 -1.844138 -0.055400
v 0.497027 1.844138 -0.055400
v 0.397095 -0.462594 0.022624
v 0.397095 -0.462639 0.130501
v 0.439265 -0.429226 0.130501
v 0.397095 -0.408918 0.130501
v 0.449681 -0.474858 0.130501
v 0.420498 -0.511452 0.130501
v 0.373692 -0.511452 0.130501
v 0.344509 -0.474858 0.130501
v 0.354924 -0.429226 0.130501
v 0.397095 -0.408918 0.022624
v 0.439265 -0.429226 0.022624
v 0.449681 -0.474858 0.022624
v 0.420498 -0.511452 0.022624
v 0.373692 -0.511452 0.022624
v 0.344509 -0.474858 0.022624
v 0.354924 -0.429226 0.022624
vn -1.0000 0.0000 0.0000
vn 0.0000 0.0000 -1.0000
vn 1.0000 0.0000 0.0000
vn 0.0000 0.0000 1.0000
vn 0.0000 -1.0000 0.0000
vn 0.0000 1.0000 0.0000
vn 0.4339 0.9010 0.0000
vn 0.9749 0.2225 0.0000
vn 0.7818 -0.6235 0.0000
vn -0.7818 -0.6235 0.0000
vn -0.9749 0.2225 0.0000
vn -0.4339 0.9010 0.0000
usemtl None
s off
f 1//1 2//1 4//1 3//1
f 3//2 4//2 8//2 7//2
f 7//3 8//3 6//3 5//3
f 5//4 6//4 2//4 1//4
f 3//5 7//5 5//5 1//5
f 8//6 4//6 2//6 6//6
f 18//7 12//7 11//7 19//7
f 19//8 11//8 13//8 20//8
f 20//9 13//9 14//9 21//9
f 21//5 14//5 15//5 22//5
f 22//10 15//10 16//10 23//10
f 23//11 16//11 17//11 24//11
f 24//12 17//12 12//12 18//12
f 10//4 11//4 12//4
f 10//4 13//4 11//4
f 10//4 14//4 13//4
f 10//4 15//4 14//4
f 10//4 16//4 15//4
f 10//4 17//4 16//4
f 10//4 12//4 17//4
f 9//2 18//2 19//2
f 9//2 19//2 20//2
f 9//2 20//2 21//2
f 9//2 21//2 22//2
f 9//2 22//2 23//2
f 9//2 23//2 24//2
f 9//2 24//2 18//2
