# Blender v2.79 (sub 0) OBJ File: 'House_5.blend'
# www.blender.org
mtllib House_5_door_1st_flr.mtl
o Cube.003_Cube.016
v 0.457730 -0.018834 0.056485
v 0.457730 4.407096 0.056485
v 0.457730 -0.018834 -0.054315
v 0.457730 4.407096 -0.054315
v 2.005145 -0.018834 0.056485
v 2.005145 4.407096 0.056485
v 2.005145 -0.018834 -0.054315
v 2.005145 4.407096 -0.054315
v 1.849583 1.639018 0.023710
v 1.849583 1.638964 0.131586
v 1.915228 1.679060 0.131586
v 1.849582 1.703430 0.131586
v 1.931441 1.624301 0.131586
v 1.886013 1.580388 0.131586
v 1.813152 1.580388 0.131586
v 1.767724 1.624301 0.131586
v 1.783937 1.679060 0.131586
v 1.849582 1.703430 0.023710
v 1.915228 1.679060 0.023710
v 1.931441 1.624301 0.023710
v 1.886013 1.580388 0.023710
v 1.813152 1.580388 0.023710
v 1.767724 1.624301 0.023710
v 1.783937 1.679060 0.023710
vn -1.0000 0.0000 0.0000
vn 0.0000 0.0000 -1.0000
vn 1.0000 0.0000 0.0000
vn 0.0000 0.0000 1.0000
vn 0.0000 -1.0000 0.0000
vn 0.0000 1.0000 0.0000
vn 0.3480 0.9375 0.0000
vn 0.9589 0.2839 0.0000
vn 0.6950 -0.7190 0.0000
vn -0.6950 -0.7190 0.0000
vn -0.9589 0.2839 0.0000
vn -0.3480 0.9375 0.0000
usemtl None
s off
f 1//1 2//1 4//1 3//1
f 3//2 4//2 8//2 7//2
f 7//3 8//3 6//3 5//3
f 5//4 6//4 2//4 1//4
f 3//5 7//5 5//5 1//5
f 8//6 4//6 2//6 6//6
f 18//7 12//7 11//7 19//7
f 19//8 11//8 13//8 20//8
f 20//9 13//9 14//9 21//9
f 21//5 14//5 15//5 22//5
f 22//10 15//10 16//10 23//10
f 23//11 16//11 17//11 24//11
f 24//12 17//12 12//12 18//12
f 10//4 11//4 12//4
f 10//4 13//4 11//4
f 10//4 14//4 13//4
f 10//4 15//4 14//4
f 10//4 16//4 15//4
f 10//4 17//4 16//4
f 10//4 12//4 17//4
f 9//2 18//2 19//2
f 9//2 19//2 20//2
f 9//2 20//2 21//2
f 9//2 21//2 22//2
f 9//2 22//2 23//2
f 9//2 23//2 24//2
f 9//2 24//2 18//2
