# Blender v2.79 (sub 0) OBJ File: 'House_3_Tiago.blend'
# www.blender.org
mtllib House_3_Tiago_mesh.mtl
o Cube
v -4.383934 0.072374 6.305852
v -4.383934 1.162689 6.305852
v -4.383934 0.072374 4.129522
v -4.383934 1.162689 4.318684
v 4.371926 0.072374 6.305852
v 4.371926 1.162689 6.305852
v 4.371926 0.072374 4.129522
v 4.371926 1.162689 4.318684
v 1.011055 1.162689 6.305852
v 1.011667 0.072374 6.305852
v -0.998117 1.162689 6.305852
v -0.998118 0.072374 6.305852
v -0.998118 0.072374 7.895692
v 1.011667 0.072374 7.895692
v -4.383934 1.162689 -4.336435
v -4.383934 0.072374 -4.336435
v 4.371926 0.072374 -4.336435
v 4.371926 1.162689 -4.336435
v -4.383934 4.321808 4.318684
v 4.371926 4.321808 4.318684
v -4.383934 4.321808 -4.336435
v 4.371926 4.321808 -4.336435
vn -1.0000 -0.0000 0.0000
vn 0.0000 0.0000 1.0000
vn 1.0000 -0.0000 0.0000
vn 0.0000 -1.0000 0.0000
vn 0.0000 1.0000 0.0000
vn 0.0000 0.8247 0.5656
vn 1.0000 0.0006 0.0000
vn 0.0000 0.0000 -1.0000
usemtl None
s off
f 1//1 2//1 4//1 3//1
f 4//2 8//2 20//2 19//2
f 7//3 8//3 6//3 5//3
f 5//2 6//2 9//2 10//2
f 3//4 7//4 5//4 10//4 12//4 1//4
f 8//5 4//5 2//5 11//5 9//5 6//5
f 12//4 10//4 14//4 13//4
f 12//2 11//2 2//2 1//2
f 9//6 11//6 13//6 14//6
f 10//7 9//7 14//7
f 12//1 13//1 11//1
f 15//8 21//8 22//8 18//8 17//8 16//8
f 8//3 7//3 17//3 18//3
f 7//4 3//4 16//4 17//4
f 19//5 20//5 22//5 21//5
f 8//3 18//3 22//3 20//3
f 3//1 4//1 19//1 21//1 15//1 16//1
