# Blender v2.79 (sub 0) OBJ File: ''
# www.blender.org
mtllib plates.mtl
o Cube_Cube.002
v 0.641756 0.590765 -0.383394
v 0.641756 0.668671 -0.383394
v 0.641756 0.590765 -1.400196
v 0.641756 0.668671 -1.400196
v 1.658559 0.590765 -0.383394
v 1.658559 0.668671 -0.383394
v 1.658559 0.590765 -1.400196
v 1.658559 0.668671 -1.400196
v 0.150157 0.960927 -1.891795
v 0.150157 0.960927 0.108205
v 0.150157 1.089348 0.108205
v 0.150157 1.089348 -1.891795
v 2.150157 0.960927 -1.891795
v 2.150157 1.089348 -1.891795
v 2.150157 0.960927 0.108205
v 2.150157 1.089348 0.108205
v 1.171719 1.075696 -0.480609
v 0.783652 1.031293 -0.926257
v 0.783652 0.928002 -1.001303
v 0.783652 0.800326 -1.001303
v 0.783652 0.697034 -0.926257
v 1.171719 0.662529 -0.480609
v 1.243092 0.701983 -0.382373
v 0.899136 1.031293 -0.842353
v 0.970509 0.928002 -0.865544
v 0.970509 0.800326 -0.865544
v 0.899136 0.697034 -0.842353
v 1.287203 0.805275 -0.321660
v 1.287203 0.932950 -0.321660
v 0.855025 1.031293 -0.706594
v 0.899136 0.928002 -0.645880
v 0.899136 0.800326 -0.645880
v 0.855025 0.697034 -0.706594
v 0.783652 0.657580 -0.804830
v 0.783652 1.070747 -0.804830
v 0.712279 1.031293 -0.706594
v 0.668168 0.928002 -0.645880
v 0.668168 0.800326 -0.645880
v 0.712279 0.697034 -0.706594
v 1.243092 1.036242 -0.382373
v 1.287203 0.701983 -0.518132
v 0.668168 1.031293 -0.842353
v 0.596795 0.928002 -0.865544
v 0.596795 0.800326 -0.865544
v 0.668168 0.697034 -0.842353
v 1.358576 0.805275 -0.541323
v 1.358576 0.932950 -0.541323
v 1.287203 1.036242 -0.518132
v 1.171719 0.701983 -0.602036
v 1.171719 0.805275 -0.677082
v 1.171719 0.932950 -0.677082
v 1.171719 1.036242 -0.602036
v 1.100346 1.036242 -0.382373
v 1.056236 0.932950 -0.321660
v 1.056236 0.805275 -0.321660
v 1.100346 0.701983 -0.382373
v 1.056236 1.036242 -0.518132
v 0.984863 0.932950 -0.541323
v 0.984863 0.805275 -0.541323
v 1.056236 0.701983 -0.518132
v 1.129312 1.113579 -1.273385
v 1.129312 0.700411 -1.273385
v 1.200685 0.739865 -1.175148
v 1.244796 0.843157 -1.114435
v 1.244796 0.970833 -1.114435
v 1.200685 1.074125 -1.175148
v 1.244796 0.739865 -1.310908
v 1.316169 0.843157 -1.334098
v 1.316169 0.970833 -1.334098
v 1.244796 1.074125 -1.310908
v 1.129312 0.739865 -1.394812
v 1.129312 0.843157 -1.469858
v 1.129312 0.970833 -1.469858
v 1.129312 1.074125 -1.394812
v 1.057939 1.074125 -1.175148
v 1.013828 0.970833 -1.114435
v 1.013828 0.843157 -1.114435
v 1.057939 0.739865 -1.175148
v 1.013828 1.074125 -1.310908
v 0.942455 0.970833 -1.334098
v 0.942455 0.843157 -1.334098
v 1.013828 0.739865 -1.310908
v 1.564459 1.100154 -0.829124
v 1.564459 0.686987 -0.829124
v 1.635832 0.726441 -0.730887
v 1.679943 0.829732 -0.670174
v 1.679943 0.957408 -0.670174
v 1.635832 1.060700 -0.730887
v 1.679943 0.726441 -0.866647
v 1.751316 0.829732 -0.889837
v 1.751316 0.957408 -0.889837
v 1.679943 1.060700 -0.866647
v 1.564459 0.726441 -0.950551
v 1.564459 0.829732 -1.025597
v 1.564459 0.957408 -1.025597
v 1.564459 1.060700 -0.950551
v 1.493086 1.060700 -0.730887
v 1.448975 0.957408 -0.670174
v 1.448975 0.829732 -0.670174
v 1.493086 0.726441 -0.730887
v 1.448975 1.060700 -0.866647
v 1.377602 0.957408 -0.889837
v 1.377602 0.829732 -0.889837
v 1.448975 0.726441 -0.866647
v 0.223577 0.935065 0.010061
v 2.037386 0.935065 0.010061
v 0.223577 0.935065 -1.803748
v 2.037386 0.935065 -1.803748
vn -1.0000 0.0000 0.0000
vn 0.0000 0.0000 -1.0000
vn 1.0000 0.0000 0.0000
vn 0.0000 0.0000 1.0000
vn 0.0000 -1.0000 0.0000
vn 0.0000 1.0000 0.0000
vn -0.6015 -0.7989 0.0000
vn 0.6502 0.7598 0.0000
vn 0.0000 -0.7989 -0.6015
vn 0.0000 0.7598 0.6502
vn 0.6015 -0.7989 0.0000
vn -0.6502 0.7598 0.0000
vn 0.0000 -0.7989 0.6015
vn 0.0000 0.7598 -0.6502
vn 0.2191 0.9280 -0.3015
vn 0.5067 -0.5067 -0.6975
vn 0.5067 0.5067 -0.6975
vn 0.2191 -0.9280 -0.3015
vn 0.5878 -0.0000 -0.8090
vn 0.3544 -0.9280 0.1152
vn 0.9511 0.0000 0.3090
vn 0.3544 0.9280 0.1152
vn 0.8199 -0.5067 0.2664
vn 0.8199 0.5067 0.2664
vn 0.0000 -0.9280 0.3727
vn 0.0000 0.9280 0.3727
vn 0.0000 -0.5067 0.8621
vn 0.0000 0.5067 0.8621
vn -0.3544 -0.9280 0.1152
vn -0.9511 0.0000 0.3090
vn -0.3544 0.9280 0.1152
vn -0.8199 -0.5067 0.2664
vn -0.8199 0.5067 0.2664
vn -0.2191 -0.9280 -0.3015
vn -0.5878 -0.0000 -0.8090
vn -0.2191 0.9280 -0.3015
vn -0.5067 -0.5067 -0.6975
vn -0.5067 0.5067 -0.6975
usemtl None
s off
f 10//1 11//1 12//1 9//1
f 9//2 12//2 14//2 13//2
f 13//3 14//3 16//3 15//3
f 15//4 16//4 11//4 10//4
f 3//5 7//5 5//5 1//5
f 8//6 4//6 2//6 6//6
f 3//7 1//7 10//7 9//7
f 2//8 4//8 12//8 11//8
f 7//9 3//9 9//9 13//9
f 4//10 8//10 14//10 12//10
f 5//11 7//11 13//11 15//11
f 8//12 6//12 16//12 14//12
f 1//13 5//13 15//13 10//13
f 6//14 2//14 11//14 16//14
f 18//15 35//15 24//15
f 21//16 20//16 26//16 27//16
f 19//17 18//17 24//17 25//17
f 34//18 21//18 27//18
f 20//19 19//19 25//19 26//19
f 34//20 27//20 33//20
f 26//21 25//21 31//21 32//21
f 24//22 35//22 30//22
f 27//23 26//23 32//23 33//23
f 25//24 24//24 30//24 31//24
f 34//25 33//25 39//25
f 32//4 31//4 37//4 38//4
f 30//26 35//26 36//26
f 33//27 32//27 38//27 39//27
f 31//28 30//28 36//28 37//28
f 34//29 39//29 45//29
f 38//30 37//30 43//30 44//30
f 36//31 35//31 42//31
f 39//32 38//32 44//32 45//32
f 37//33 36//33 42//33 43//33
f 34//34 45//34 21//34
f 44//35 43//35 19//35 20//35
f 42//36 35//36 18//36
f 45//37 44//37 20//37 21//37
f 43//38 42//38 18//38 19//38
f 52//15 17//15 48//15
f 49//16 50//16 46//16 41//16
f 51//17 52//17 48//17 47//17
f 22//18 49//18 41//18
f 50//19 51//19 47//19 46//19
f 22//20 41//20 23//20
f 46//21 47//21 29//21 28//21
f 48//22 17//22 40//22
f 41//23 46//23 28//23 23//23
f 47//24 48//24 40//24 29//24
f 22//25 23//25 56//25
f 28//4 29//4 54//4 55//4
f 40//26 17//26 53//26
f 23//27 28//27 55//27 56//27
f 29//28 40//28 53//28 54//28
f 22//29 56//29 60//29
f 55//30 54//30 58//30 59//30
f 53//31 17//31 57//31
f 56//32 55//32 59//32 60//32
f 54//33 53//33 57//33 58//33
f 22//34 60//34 49//34
f 59//35 58//35 51//35 50//35
f 57//36 17//36 52//36
f 60//37 59//37 50//37 49//37
f 58//38 57//38 52//38 51//38
f 74//15 61//15 70//15
f 71//16 72//16 68//16 67//16
f 73//17 74//17 70//17 69//17
f 62//18 71//18 67//18
f 72//19 73//19 69//19 68//19
f 62//20 67//20 63//20
f 68//21 69//21 65//21 64//21
f 70//22 61//22 66//22
f 67//23 68//23 64//23 63//23
f 69//24 70//24 66//24 65//24
f 62//25 63//25 78//25
f 64//4 65//4 76//4 77//4
f 66//26 61//26 75//26
f 63//27 64//27 77//27 78//27
f 65//28 66//28 75//28 76//28
f 62//29 78//29 82//29
f 77//30 76//30 80//30 81//30
f 75//31 61//31 79//31
f 78//32 77//32 81//32 82//32
f 76//33 75//33 79//33 80//33
f 62//34 82//34 71//34
f 81//35 80//35 73//35 72//35
f 79//36 61//36 74//36
f 82//37 81//37 72//37 71//37
f 80//38 79//38 74//38 73//38
f 96//15 83//15 92//15
f 93//16 94//16 90//16 89//16
f 95//17 96//17 92//17 91//17
f 84//18 93//18 89//18
f 94//19 95//19 91//19 90//19
f 84//20 89//20 85//20
f 90//21 91//21 87//21 86//21
f 92//22 83//22 88//22
f 89//23 90//23 86//23 85//23
f 91//24 92//24 88//24 87//24
f 84//25 85//25 100//25
f 86//4 87//4 98//4 99//4
f 88//26 83//26 97//26
f 85//27 86//27 99//27 100//27
f 87//28 88//28 97//28 98//28
f 84//29 100//29 104//29
f 99//30 98//30 102//30 103//30
f 97//31 83//31 101//31
f 100//32 99//32 103//32 104//32
f 98//33 97//33 101//33 102//33
f 84//34 104//34 93//34
f 103//35 102//35 95//35 94//35
f 101//36 83//36 96//36
f 104//37 103//37 94//37 93//37
f 102//38 101//38 96//38 95//38
f 105//6 106//6 108//6 107//6
